<?xml version="1.0" standalone="no"?>
<!DOCTYPE svg PUBLIC "-//W3C//DTD SVG 20010904//EN"
 "http://www.w3.org/TR/2001/REC-SVG-20010904/DTD/svg10.dtd">
<svg version="1.0" xmlns="http://www.w3.org/2000/svg"
 width="90.000000pt" height="90.000000pt" viewBox="0 0 90.000000 90.000000"
 preserveAspectRatio="xMidYMid meet">
<metadata>
Created by potrace 1.15, written by Peter Selinger 2001-2017
</metadata>
<g transform="translate(0.000000,90.000000) scale(0.100000,-0.100000)"
fill="#000000" stroke="none">
<path d="M96 777 c-25 -18 -13 -57 18 -57 17 0 49 -33 130 -135 l108 -135 92
0 93 0 107 134 c70 89 114 136 129 138 26 4 37 46 15 59 -7 5 -162 9 -344 9
-259 0 -334 -3 -348 -13z"/>
<path d="M580 403 c-44 -23 -60 -39 -83 -83 -26 -49 -28 -62 -24 -119 4 -49
12 -73 33 -104 83 -117 265 -117 349 2 24 34 30 54 33 109 3 56 0 74 -20 112
-36 66 -91 101 -169 107 -57 4 -70 2 -119 -24z m77 -125 l23 -21 23 21 c47 45
80 12 35 -35 l-21 -23 21 -23 c45 -47 12 -80 -35 -35 l-23 21 -23 -21 c-47
-45 -80 -12 -35 35 l21 23 -23 24 c-23 25 -22 56 2 56 6 0 22 -10 35 -22z"/>
<path d="M350 265 c0 -145 0 -146 53 -126 22 9 24 14 19 59 -5 57 9 110 44
165 l24 37 -70 0 -70 0 0 -135z"/>
</g>
</svg>
